<?xml version="1.0" encoding="UTF-8"?>
<!DOCTYPE svg PUBLIC "-//W3C//DTD SVG 1.1//EN" "http://www.w3.org/Graphics/SVG/1.1/DTD/svg11.dtd">
<svg xmlns="http://www.w3.org/2000/svg" version="1.1" width="707px" height="353px" style="shape-rendering:geometricPrecision; text-rendering:geometricPrecision; image-rendering:optimizeQuality; fill-rule:evenodd; clip-rule:evenodd" xmlns:xlink="http://www.w3.org/1999/xlink">
<g><path style="opacity:0.997" fill="#c7c8c7" d="M 510.5,120.5 C 415.334,121.333 320.001,121.833 224.5,122C 225.253,123.487 226.086,123.654 227,122.5C 227.667,125.167 228.333,125.167 229,122.5C 328.866,122.432 427.866,122.766 526,123.5C 533.579,122.458 541.246,121.791 549,121.5C 553.489,121.35 557.823,122.016 562,123.5C 564.679,122.105 567.512,121.439 570.5,121.5C 572.931,122.607 573.931,124.607 573.5,127.5C 573.481,193.684 573.481,260.018 573.5,326.5C 572.501,263.336 572.168,200.002 572.5,136.5C 572.5,135.5 572.5,134.5 572.5,133.5C 457.498,133.833 342.498,133.5 227.5,132.5C 226.054,130.382 225.387,128.049 225.5,125.5C 207.821,125.167 190.154,125.5 172.5,126.5C 171.054,128.618 170.387,130.951 170.5,133.5C 158.167,133.5 145.833,133.5 133.5,133.5C 133.5,129.5 133.5,125.5 133.5,121.5C 259.053,120.554 384.719,120.221 510.5,120.5 Z"/></g>
<g><path style="opacity:0.6" fill="#c5cacd" d="M 510.5,120.5 C 530.674,120.17 550.674,120.503 570.5,121.5C 567.512,121.439 564.679,122.105 562,123.5C 557.823,122.016 553.489,121.35 549,121.5C 541.246,121.791 533.579,122.458 526,123.5C 427.866,122.766 328.866,122.432 229,122.5C 228.333,125.167 227.667,125.167 227,122.5C 226.086,123.654 225.253,123.487 224.5,122C 320.001,121.833 415.334,121.333 510.5,120.5 Z"/></g>
<g><path style="opacity:1" fill="#ebebeb" d="M 572.5,136.5 C 571.833,136.5 571.167,136.5 570.5,136.5C 424.759,136.489 279.092,136.489 133.5,136.5C 133.833,208.002 133.499,279.335 132.5,350.5C 132.167,277.998 132.501,205.665 133.5,133.5C 145.833,133.5 158.167,133.5 170.5,133.5C 170.387,130.951 171.054,128.618 172.5,126.5C 190.154,125.5 207.821,125.167 225.5,125.5C 225.387,128.049 226.054,130.382 227.5,132.5C 342.498,133.5 457.498,133.833 572.5,133.5C 572.5,134.5 572.5,135.5 572.5,136.5 Z"/></g>
<g><path style="opacity:1" fill="#da6f73" d="M 139.5,125.5 C 144.34,126.188 144.673,127.855 140.5,130.5C 138.296,129.218 137.962,127.551 139.5,125.5 Z"/></g>
<g><path style="opacity:1" fill="#ebca62" d="M 147.5,125.5 C 148.833,125.5 150.167,125.5 151.5,125.5C 151.5,126.833 151.5,128.167 151.5,129.5C 150.167,129.5 148.833,129.5 147.5,129.5C 147.5,128.167 147.5,126.833 147.5,125.5 Z"/></g>
<g><path style="opacity:1" fill="#94c13f" d="M 159.5,125.5 C 159.5,126.833 159.5,128.167 159.5,129.5C 158.167,129.5 156.833,129.5 155.5,129.5C 155.5,128.167 155.5,126.833 155.5,125.5C 156.833,125.5 158.167,125.5 159.5,125.5 Z"/></g>
<g><path style="opacity:1" fill="#bec8a2" d="M 159.5,125.5 C 161.446,126.254 162.279,127.588 162,129.5C 159.726,130.811 157.56,130.811 155.5,129.5C 156.833,129.5 158.167,129.5 159.5,129.5C 159.5,128.167 159.5,126.833 159.5,125.5 Z"/></g>
<g><path style="opacity:1" fill="#fefefe" d="M 570.5,136.5 C 570.523,208.403 570.523,280.403 570.5,352.5C 424.5,352.5 278.5,352.5 132.5,352.5C 132.5,351.833 132.5,351.167 132.5,350.5C 133.499,279.335 133.833,208.002 133.5,136.5C 279.092,136.489 424.759,136.489 570.5,136.5 Z"/></g>
<g><path style="opacity:0.815" fill="#f6fefe" d="M 570.5,136.5 C 571.167,136.5 571.833,136.5 572.5,136.5C 572.168,200.002 572.501,263.336 573.5,326.5C 572.558,335.113 572.225,343.779 572.5,352.5C 571.833,352.5 571.167,352.5 570.5,352.5C 570.523,280.403 570.523,208.403 570.5,136.5 Z"/></g>
</svg>
